<?xml version="1.0" standalone="no"?>
<!DOCTYPE svg PUBLIC "-//W3C//DTD SVG 20010904//EN"
 "http://www.w3.org/TR/2001/REC-SVG-20010904/DTD/svg10.dtd">
<svg version="1.0" xmlns="http://www.w3.org/2000/svg"
 width="840.000000pt" height="1503.000000pt" viewBox="0 0 840.000000 1503.000000"
 preserveAspectRatio="xMidYMid meet">

<g transform="translate(0.000000,1503.000000) scale(0.100000,-0.100000)"
fill="#000000" stroke="none">
<path d="M4355 14624 c-22 -2 -101 -9 -175 -15 -163 -14 -196 -23 -119 -33
203 -26 578 -120 785 -196 111 -42 320 -137 313 -144 -2 -2 -65 9 -140 24
-286 58 -543 88 -834 96 -874 26 -1640 -231 -2320 -777 -834 -670 -1235 -1728
-1305 -3439 -5 -135 -10 -284 -10 -332 l0 -88 133 0 c486 0 878 200 1123 573
52 78 118 213 195 397 28 69 91 207 139 307 395 819 856 1337 1333 1497 145
48 226 59 386 53 170 -6 283 -33 415 -97 l81 -40 -105 6 c-315 17 -609 -82
-858 -290 -158 -132 -283 -279 -434 -511 -115 -176 -186 -306 -403 -735 -260
-515 -338 -640 -520 -829 -119 -123 -264 -231 -423 -314 -207 -107 -339 -148
-593 -184 -155 -21 -613 -25 -728 -5 -40 7 -75 11 -77 9 -8 -8 60 -84 129
-145 140 -122 335 -241 526 -318 l106 -43 11 -53 c7 -29 31 -143 54 -253 86
-407 462 -1856 478 -1840 3 2 -1 75 -7 162 -34 461 -41 1004 -16 1200 18 140
69 363 127 559 l41 141 91 12 c395 56 855 314 1206 676 107 111 108 108 11
-29 -174 -244 -448 -511 -714 -696 -43 -29 -75 -55 -73 -58 9 -9 140 20 251
55 392 125 724 386 947 745 97 156 221 442 408 938 215 570 301 712 489 802
58 28 76 32 151 33 68 0 95 -5 137 -24 59 -26 130 -97 163 -160 26 -52 50
-172 50 -252 0 -32 4 -59 8 -59 19 0 110 66 163 119 69 69 158 203 199 299
100 235 123 480 65 708 -104 409 -426 706 -961 884 l-149 49 70 1 c85 0 274
-22 370 -44 523 -120 896 -446 1017 -889 20 -72 23 -105 22 -267 -1 -166 -3
-195 -27 -282 -51 -192 -133 -367 -254 -547 -61 -89 -63 -93 -36 -86 91 22
315 143 440 236 386 289 605 669 653 1130 5 50 11 94 14 96 7 7 53 -143 66
-216 14 -81 15 -305 0 -396 -23 -143 -71 -302 -132 -434 -21 -46 -36 -87 -33
-90 13 -12 124 37 205 91 183 120 369 318 504 538 296 478 345 1014 130 1441
-88 176 -269 403 -446 559 -204 181 -393 307 -653 435 -347 171 -700 275
-1085 320 -130 15 -492 27 -575 19z"/>
<path d="M7414 11963 c-60 -266 -159 -463 -351 -700 l-75 -93 70 -79 c186
-211 242 -336 316 -711 73 -363 104 -682 113 -1145 5 -296 7 -326 29 -395 61
-200 114 -437 135 -605 15 -127 6 -823 -16 -1110 -8 -110 -14 -207 -14 -215 3
-62 359 1284 463 1750 106 477 121 601 113 930 -18 677 -121 1391 -253 1747
-103 278 -280 509 -486 632 l-37 22 -7 -28z"/>
<path d="M7676 6747 c-80 -224 -212 -430 -458 -709 -288 -327 -429 -617 -493
-1012 l-6 -38 68 7 c167 17 294 58 356 114 30 27 39 31 34 16 -3 -11 -8 -34
-12 -50 -17 -89 -259 -163 -502 -152 -227 9 -397 93 -878 432 -358 252 -447
300 -615 326 -138 21 -328 -9 -488 -77 l-82 -36 -89 36 c-143 58 -248 80 -386
79 -230 0 -311 -38 -754 -353 -484 -343 -698 -435 -957 -409 -269 27 -381 84
-433 222 -11 27 -10 27 37 -11 26 -22 66 -49 89 -61 52 -26 168 -58 252 -69
l64 -9 -6 62 c-8 83 -51 250 -91 355 -86 221 -197 398 -400 634 -270 313 -390
489 -458 671 -16 43 -17 45 -13 15 45 -314 18 -593 -111 -1157 -98 -432 -129
-703 -121 -1063 10 -431 83 -767 236 -1086 66 -138 151 -271 151 -237 0 111
42 376 76 477 22 66 67 146 82 146 4 0 7 -152 7 -337 0 -362 6 -424 61 -671
67 -299 197 -589 366 -814 66 -87 220 -248 257 -268 22 -11 22 -11 -2 37 -62
122 -104 290 -108 423 -3 117 0 120 30 40 119 -318 333 -577 651 -786 130 -85
289 -168 549 -283 230 -103 319 -154 341 -196 7 -14 17 -25 21 -25 15 0 31
108 28 182 -4 63 -9 83 -36 127 -18 28 -29 51 -25 51 33 -1 144 -36 194 -61
127 -64 223 -199 299 -419 17 -52 35 -99 39 -103 10 -12 159 45 259 99 185
100 424 280 612 461 l106 102 -24 -87 c-18 -64 -26 -123 -30 -222 l-5 -135 20
31 c29 45 130 108 357 222 302 152 489 278 649 436 173 170 290 354 387 606
l30 75 -5 -120 c-6 -142 -30 -246 -84 -374 -48 -111 -39 -108 83 21 278 296
461 734 519 1248 17 141 21 518 8 663 -9 89 1 98 40 39 56 -84 90 -218 114
-446 8 -77 16 -142 19 -144 6 -6 88 124 130 208 50 99 116 272 148 390 144
514 141 1071 -7 1741 -25 113 -52 250 -60 305 -41 269 -44 551 -11 853 9 78
15 144 13 146 -2 2 -16 -33 -32 -78z m-3026 -1737 c52 -101 218 -239 366 -305
154 -69 401 -140 467 -133 30 3 30 4 -34 43 -77 47 -214 183 -248 245 l-25 45
75 -62 c138 -114 300 -201 488 -263 162 -54 284 -73 471 -73 363 -1 610 82
798 268 45 46 82 80 82 77 0 -14 -70 -123 -120 -186 -99 -124 -256 -223 -421
-265 -221 -56 -543 -42 -807 35 -21 6 -20 3 13 -47 62 -95 79 -151 80 -264 0
-118 -17 -163 -97 -250 -89 -98 -221 -143 -383 -131 -214 16 -379 106 -475
260 l-35 56 -52 -57 -52 -58 6 66 c6 65 -11 150 -26 132 -4 -4 -15 -33 -24
-64 -19 -61 -79 -160 -121 -198 l-26 -24 0 35 c0 52 -35 155 -74 218 l-34 54
-8 -38 c-3 -21 -4 -72 -1 -112 3 -41 2 -74 -3 -74 -14 0 -72 72 -90 112 l-17
39 -39 -67 c-73 -125 -204 -222 -349 -259 -85 -22 -209 -29 -285 -16 -195 32
-341 191 -342 371 -1 84 14 138 63 229 28 53 35 72 23 67 -9 -4 -58 -14 -108
-24 -113 -21 -426 -23 -530 -4 -247 46 -451 166 -570 336 -92 132 -92 141 1
49 69 -69 108 -98 178 -135 305 -157 743 -178 1111 -53 167 57 340 154 472
264 34 28 62 49 62 46 0 -3 -18 -32 -39 -63 -51 -74 -127 -147 -221 -212 l-75
-52 64 7 c213 22 514 145 659 269 102 87 174 197 189 291 l6 39 17 -59 c9 -33
27 -80 40 -105z"/>
</g>
</svg>
