<?xml version="1.0" standalone="no"?>
<!DOCTYPE svg PUBLIC "-//W3C//DTD SVG 20010904//EN"
 "http://www.w3.org/TR/2001/REC-SVG-20010904/DTD/svg10.dtd">
<svg version="1.0" xmlns="http://www.w3.org/2000/svg"
 width="840.000000pt" height="1503.000000pt" viewBox="0 0 840.000000 1503.000000"
 preserveAspectRatio="xMidYMid meet">

<g transform="translate(0.000000,1503.000000) scale(0.100000,-0.100000)"
fill="#000000" stroke="none">
<path d="M4155 14605 c-60 -8 -117 -14 -125 -15 -8 -1 48 -13 125 -26 289 -51
592 -137 815 -231 106 -45 195 -92 188 -99 -2 -2 -69 10 -149 26 -326 65 -611
94 -939 94 -421 -1 -761 -54 -1125 -177 -497 -168 -993 -479 -1351 -849 -595
-615 -917 -1522 -1015 -2858 -12 -167 -28 -729 -20 -744 7 -15 318 2 421 23
261 53 468 159 643 330 152 147 232 274 340 531 280 667 558 1126 887 1464
284 291 554 440 869 476 115 14 249 3 376 -31 85 -22 247 -89 252 -104 2 -6
-52 -9 -151 -7 -176 4 -273 -10 -414 -59 -302 -106 -565 -340 -818 -729 -113
-172 -193 -319 -392 -715 -265 -527 -365 -686 -552 -873 -119 -120 -232 -203
-402 -294 -203 -108 -315 -144 -578 -185 -143 -22 -667 -26 -764 -6 -33 7 -62
11 -64 8 -10 -10 176 -182 268 -247 103 -73 324 -190 432 -229 64 -22 68 -26
74 -59 46 -266 226 -1007 400 -1640 134 -491 136 -495 129 -420 -26 304 -45
947 -34 1170 10 187 61 444 140 701 16 53 29 105 29 116 0 17 11 21 86 32 398
56 830 290 1191 646 72 72 129 126 126 120 -166 -278 -467 -583 -833 -844
l-45 -32 45 7 c77 11 225 52 304 84 323 128 597 340 787 610 142 201 236 407
494 1085 150 395 223 541 319 644 95 101 197 151 306 151 207 0 333 -145 347
-397 3 -57 9 -103 13 -103 16 0 127 89 176 141 129 138 220 327 260 536 25
134 16 358 -20 478 -118 399 -426 676 -941 847 -82 28 -152 53 -155 56 -3 2
58 2 135 -1 408 -18 790 -179 1038 -436 100 -103 155 -183 213 -305 178 -377
114 -823 -181 -1272 -36 -54 -63 -99 -61 -101 7 -7 188 76 270 123 429 247
707 616 805 1068 12 53 24 137 28 186 3 50 9 90 14 90 12 0 46 -99 66 -192 26
-120 23 -348 -6 -486 -28 -134 -63 -244 -116 -364 -24 -54 -39 -98 -34 -98 29
0 134 51 209 101 322 216 608 634 709 1037 45 179 55 415 26 587 -49 285 -202
552 -473 821 -429 427 -1038 718 -1727 825 -180 28 -693 36 -870 14z"/>
<path d="M7401 11895 c-54 -217 -175 -443 -343 -643 l-70 -83 61 -65 c126
-135 221 -295 266 -450 34 -116 88 -394 114 -579 38 -270 52 -475 58 -815 5
-333 5 -336 33 -425 73 -233 133 -533 145 -730 10 -151 -17 -928 -40 -1155
l-4 -45 15 45 c8 25 55 191 104 370 234 855 379 1463 442 1855 15 98 15 523
-1 745 -52 714 -161 1280 -301 1560 -65 132 -147 247 -235 335 -70 71 -193
165 -215 165 -4 0 -17 -38 -29 -85z"/>
</g>
</svg>
