<?xml version="1.0" standalone="no"?>
<!DOCTYPE svg PUBLIC "-//W3C//DTD SVG 20010904//EN"
 "http://www.w3.org/TR/2001/REC-SVG-20010904/DTD/svg10.dtd">
<svg version="1.0" xmlns="http://www.w3.org/2000/svg"
 width="840.000000pt" height="1331.000000pt" viewBox="0 0 840.000000 1331.000000"
 preserveAspectRatio="xMidYMid meet">

<g transform="translate(0.000000,1331.000000) scale(0.100000,-0.100000)"
fill="#000000" stroke="none">
<path d="M6936 12858 c-12 -91 -26 -265 -46 -578 -24 -394 -44 -620 -71 -805
-76 -532 -217 -850 -435 -987 -112 -71 -271 -95 -423 -64 -213 43 -300 107
-562 417 -208 246 -320 336 -476 382 -136 40 -254 32 -547 -39 l-189 -46 -314
58 -315 57 -81 -16 c-173 -34 -299 -123 -620 -436 -242 -237 -341 -317 -457
-371 -71 -33 -81 -35 -180 -35 -98 0 -109 2 -172 33 -84 41 -201 150 -264 244
-133 202 -220 503 -278 963 -43 333 -95 1001 -96 1214 0 24 -2 42 -5 40 -2 -3
-66 -255 -141 -559 -154 -629 -161 -648 -334 -945 -271 -465 -310 -541 -376
-738 -30 -87 -74 -282 -74 -323 0 -29 18 -9 112 120 51 71 99 131 106 134 9 3
12 -20 12 -91 0 -121 -27 -227 -114 -455 -102 -267 -128 -381 -142 -642 -9
-178 24 -546 54 -594 3 -5 32 82 64 194 31 112 60 209 62 214 2 6 2 -200 -1
-459 -5 -406 -3 -486 11 -585 54 -372 136 -662 248 -882 45 -89 146 -244 153
-236 3 2 -32 488 -49 683 -5 55 -1 47 48 -100 60 -178 120 -319 256 -600 199
-413 217 -468 325 -996 47 -233 89 -433 92 -443 5 -19 7 -18 29 7 31 37 42 78
60 242 9 77 17 142 20 144 7 7 13 -24 68 -366 54 -333 57 -345 97 -425 154
-309 495 -678 868 -942 52 -36 96 -64 98 -62 4 4 -84 316 -118 421 -8 26 -8
28 4 15 8 -8 102 -144 209 -302 l195 -287 119 -291 c87 -212 123 -290 134
-288 52 10 99 447 100 926 0 94 3 123 12 120 25 -8 107 -144 156 -258 95 -219
184 -493 257 -793 32 -132 52 -247 76 -447 18 -149 36 -264 40 -258 3 7 88
281 189 608 100 327 186 601 190 608 4 8 10 -53 14 -135 16 -374 19 -403 32
-403 32 0 106 137 174 320 23 63 85 240 136 394 98 288 157 432 173 422 5 -3
15 -38 22 -77 21 -116 2 -219 -87 -492 -74 -224 -77 -236 -82 -349 -5 -133 -3
-136 60 -93 132 90 320 464 538 1074 48 133 90 239 93 235 12 -21 27 -134 27
-212 0 -47 -7 -158 -16 -249 -8 -90 -14 -175 -12 -189 3 -24 3 -24 73 22 100
67 249 221 327 339 174 262 294 587 385 1043 22 105 40 175 44 165 3 -10 23
-97 44 -193 21 -96 42 -179 46 -184 19 -22 45 74 143 528 123 569 115 545 351
996 192 366 250 499 320 725 31 100 34 106 34 65 1 -25 -10 -184 -24 -355 -13
-170 -22 -311 -20 -313 9 -10 114 157 166 263 97 202 160 411 216 725 l28 155
-1 515 c-1 283 1 508 3 500 2 -8 28 -102 56 -208 29 -106 57 -194 62 -194 17
-2 71 119 88 197 45 205 11 428 -135 875 -119 366 -139 448 -145 588 -4 74 -2
122 4 122 5 0 56 -64 114 -142 l104 -143 3 89 c7 206 -85 426 -386 926 -264
439 -239 374 -397 1023 -74 306 -135 560 -135 562 0 3 -4 5 -9 5 -5 0 -11 -19
-15 -42z m-2651 -2540 c107 -16 219 -51 418 -132 100 -40 195 -76 210 -80 39
-9 26 -23 -58 -62 -164 -76 -349 -113 -606 -121 -323 -11 -616 40 -814 140
l-60 30 80 38 c98 46 334 126 510 173 138 36 166 37 320 14z"/>
</g>
</svg>
